# xmcd
#
# Track frame offsets:
#	150
#	15983
#	30908
#	47208
#	62248
#	76944
#	93205
#	108529
#	125997
#	138620
#	154462
#	173354
#	190978
#	206946
#
# Disc length: 3037 seconds
#
# Revision: 1
# Processed by: cddbd v1.5.2PL0 Copyright (c) Steve Scherf et al.
# Submitted via: audiograbber 1.83.01
#
DISCID=bf0bdb0e
DTITLE=Various Artist - CDX Volume 656 (November 27, 2017)
DYEAR=2017
DGENRE=Country
TTITLE0=Chris Janson - Drunk Girl
TTITLE1=Keith Urban - Female
TTITLE2=Kip Moore - Last Shot
TTITLE3=Michael Tyler - Hey Mama
TTITLE4=AC Jones - Buses and Trains
TTITLE5=Remington - Dallas Until I Die 
TTITLE6=Sarabeth - Something About It
TTITLE7=Darren Taylor - The Richest Man Alive
TTITLE8=Tony Jackson - A Soldier's Christmas Eve
TTITLE9=John Oates - Santa Be Good To Me
TTITLE10=Craig Gerdes - Christmas Eve At Our House
TTITLE11=Andy Ross - Make Christmas Great Again
TTITLE12=Abbi Ann - Put A Bow On It 
TTITLE13=Teea Goans - They Saw A King
EXTD=
EXTT0=
EXTT1=
EXTT2=
EXTT3=
EXTT4=
EXTT5=
EXTT6=
EXTT7=
EXTT8=
EXTT9=
EXTT10=
EXTT11=
EXTT12=
EXTT13=
PLAYORDER=
